#!OML:ASF \\sashay\E\basketball\basketball\Project 1\Capture day 1\Session 1\Subject.ASF
:FULLY-SPECIFIED
:DEGREES
125
root -10.1906 14.9222 4.549 349.864 55.1323 -22.2351
lowerback 14.6896 0.725601 -2.4782
upperback 8.52067 0.954325 -4.65963
thorax 0.832732 0.641407 -3.61781
lowerneck -3.86128 13.1691 -10.0809
upperneck -8.72185 18.0922 1.5304
head -3.34271 9.36324 1.68873
rclavicle 2.22639e-014 9.54166e-015
rhumerus -25.0789 30.979 -82.6164
rradius 115.855
rwrist -25.8155
rhand -24.8736 46.145
rfingers 7.12502
rthumb 1.63361 16.1715
lclavicle 2.22639e-014 9.54166e-015
lhumerus -4.50463 -53.5433 70.02
lradius 107.584
lwrist 40.6888
lhand -34.2962 23.2312
lfingers 7.12502
lthumb -7.4655 53.0795
rfemur 15.145 -14.1424 14.1118
rtibia 11.3302
rfoot -14.2333 -12.2785
rtoes -3.54628
lfemur -58.524 43.5205 -22.9924
ltibia 61.0691
lfoot -21.8128 22.3199
ltoes 0.530086
126
root -10.3093 14.8299 4.55806 349.937 55.488 -21.8003
lowerback 15.5886 0.387129 -2.94724
upperback 8.75521 0.43454 -4.47512
thorax 0.582401 0.368918 -3.09963
lowerneck -3.91002 13.3461 -9.83461
upperneck -9.58413 18.2775 0.614058
head -3.51543 9.49722 1.32354
rclavicle 7.95139e-015 2.8625e-014
rhumerus -25.3128 31.456 -82.4671
rradius 115.555
rwrist -25.7846
rhand -24.9735 46.0548
rfingers 7.12502
rthumb 1.53712 16.0806
lclavicle 7.95139e-015 2.8625e-014
lhumerus -5.67033 -52.9888 71.8206
lradius 107.325
lwrist 40.6892
lhand -34.046 23.635
lfingers 7.12502
lthumb -7.22395 53.4917
rfemur 16.0023 -15.4601 13.9721
rtibia 10.3069
rfoot -14.3082 -14.9674
rtoes -23.4788
lfemur -59.4463 43.1195 -23.2957
ltibia 62.2444
lfoot -21.9541 22.4306
ltoes 1.25255
127
root -10.4273 14.7111 4.56095 349.55 55.5687 -21.7055
lowerback 16.4114 -0.0357902 -3.06214
upperback 9.14311 -0.133977 -4.32834
thorax 0.549149 0.0873137 -2.80277
lowerneck -3.5018 13.6945 -9.46149
upperneck -11.0099 18.5991 -0.751771
head -3.91383 9.72484 0.730586
rclavicle 6.04305e-014 -7.63333e-014
rhumerus -25.1061 32.2392 -82.3914
rradius 115.186
rwrist -25.9196
rhand -25.0893 45.6298
rfingers 7.12502
rthumb 1.4253 15.6549
lclavicle 6.04305e-014 -7.63333e-014
lhumerus -6.42139 -52.079 73.0719
lradius 106.982
lwrist 40.4923
lhand -33.417 24.5704
lfingers 7.12502
lthumb -6.61678 54.447
rfemur 16.481 -17.2909 14.0549
rtibia 10.0599
rfoot -7.1068 -20.2609
rtoes -49.9241
lfemur -60.2701 42.9713 -23.1377
ltibia 63.5655
lfoot -22.103 22.2902
ltoes 2.87349
128
root -10.5378 14.6218 4.55582 348.652 55.4972 -22.0835
lowerback 17.6156 -0.231387 -2.80733
upperback 9.52997 -0.368489 -4.11722
thorax 0.331507 -0.0133117 -2.69424
lowerneck -3.43023 13.8166 -8.98713
upperneck -12.0633 18.6508 -1.986
head -4.10988 9.81125 0.224619
rclavicle -3.97569e-014 -6.36111e-015
rhumerus -25.1086 32.3631 -82.2856
rradius 114.945
rwrist -26.117
rhand -25.1423 44.9859
rfingers 7.12502
rthumb 1.37416 15.0105
lclavicle -3.97569e-014 -6.36111e-015
lhumerus -6.50717 -51.6605 74.0776
lradius 106.58
lwrist 40.4594
lhand -31.7016 26.3136
lfingers 7.12502
lthumb -4.96061 56.2356
rfemur 16.4173 -18.1307 14.2906
rtibia 10.8373
rfoot -9.37757 -20.9807
rtoes -49.6523
lfemur -60.6826 42.9263 -22.4737
ltibia 64.7241
lfoot -22.3214 22.063
ltoes 4.41006
129
root -10.6286 14.5145 4.54874 348.177 55.2843 -22.5342
lowerback 17.8863 -0.501903 -2.24298
upperback 9.97207 -0.606336 -4.02166
thorax 0.653387 -0.105204 -2.87507
lowerneck -3.40574 13.9712 -8.67197
upperneck -13.0493 18.768 -2.98136
head -4.32618 9.93217 -0.185997
rclavicle 3.18055e-014 5.08889e-014
rhumerus -24.8673 32.5035 -82.3546
rradius 114.602
rwrist -26.2675
rhand -25.2144 44.6484
rfingers 7.12502
rthumb 1.30454 14.6727
lclavicle 3.18055e-014 5.08889e-014
lhumerus -6.59904 -51.0645 75.0802
lradius 106.061
lwrist 40.2803
lhand -32.4777 26.3599
lfingers 7.12502
lthumb -5.70996 56.263
rfemur 15.5034 -20.0217 14.3354
rtibia 12.5199
rfoot -8.37368 -22.0656
rtoes -52.0099
lfemur -61.8411 42.9108 -22.2304
ltibia 65.9416
lfoot -22.2394 22.1853
ltoes 3.80811
130
root -10.7092 14.4273 4.53817 347.193 55.2523 -23.1582
lowerback 18.5176 -0.860772 -1.44344
upperback 10.6169 -0.908773 -4.09135
thorax 1.00203 -0.201274 -3.35645
lowerneck -3.80242 14.1971 -8.36805
upperneck -14.3176 19.0823 -3.60914
head -4.62357 10.1609 -0.479935
rclavicle -2.8625e-014 -6.99722e-014
rhumerus -24.4497 32.3739 -82.7426
rradius 114.162
rwrist -26.3183
rhand -25.423 44.6176
rfingers 7.12502
rthumb 1.10306 14.6407
lclavicle -2.8625e-014 -6.99722e-014
lhumerus -6.34805 -50.6945 75.5742
lradius 105.339
lwrist 39.9
lhand -33.5662 25.4504
lfingers 7.12502
lthumb -6.76086 55.3225
rfemur 14.7459 -21.2842 14.3142
rtibia 14.745
rfoot -11.764 -21.9444
rtoes -50.666
lfemur -62.2713 42.7282 -21.6367
ltibia 66.9528
lfoot -22.0257 22.43
ltoes 2.95312
131
root -10.7875 14.344 4.52594 346.247 55.0345 -24.0889
lowerback 19.0115 -1.11793 -0.718075
upperback 11.0912 -1.09863 -3.99067
thorax 1.24401 -0.251391 -3.63175
lowerneck -4.56981 14.2953 -7.94303
upperneck -14.6666 19.2687 -4.0149
head -4.51546 10.2769 -0.619053
rclavicle 2.8625e-014 -1.90833e-014
rhumerus -24.1139 32.201 -83.1434
rradius 113.658
rwrist -26.4334
rhand -25.7955 44.6376
rfingers 7.12502
rthumb 0.743212 14.6591
lclavicle 2.8625e-014 -1.90833e-014
lhumerus -5.91525 -50.0698 76.0771
lradius 104.84
lwrist 40.2984
lhand -33.6659 25.7837
lfingers 7.12502
lthumb -6.85705 55.6527
rfemur 13.8551 -22.0209 14.7479
rtibia 16.7705
rfoot -16.2987 -20.8642
rtoes -48.0693
lfemur -63.1463 42.7441 -21.1017
ltibia 67.9709
lfoot -22.0463 22.343
ltoes 4.15658
132
root -10.8642 14.2658 4.50582 344.439 54.9319 -26.0137
lowerback 19.7534 -1.49992 0.373886
upperback 11.4299 -1.40067 -3.58938
thorax 1.20287 -0.353774 -3.76894
lowerneck -4.76538 14.4712 -7.94843
upperneck -15.7127 19.4986 -4.49088
head -4.82294 10.4613 -0.830981
rclavicle -8.74653e-014 0
rhumerus -23.8792 32.119 -83.4919
rradius 113.12
rwrist -26.7386
rhand -26.0593 44.0038
rfingers 7.12502
rthumb 0.488449 14.0247
lclavicle -8.74653e-014 0
lhumerus -6.18156 -49.0751 77.2746
lradius 104.191
lwrist 40.8576
lhand -33.5488 25.8154
lfingers 7.12502
lthumb -6.74405 55.688
rfemur 13.2135 -22.8992 15.6761
rtibia 18.5213
rfoot -19.3895 -19.6941
rtoes -45.7779
lfemur -64.0257 42.5114 -19.9988
ltibia 68.9338
lfoot -22.0973 22.0933
ltoes 5.51163
133
root -10.9051 14.2017 4.49315 342.891 54.5 -27.8207
lowerback 19.9243 -1.74941 1.7348
upperback 11.768 -1.48105 -3.37753
thorax 1.45876 -0.32106 -4.30625
lowerneck -4.75384 14.5565 -7.74624
upperneck -16.8989 19.5964 -4.74833
head -4.68726 10.5676 -0.874176
rclavicle 6.04305e-014 -9.54166e-015
rhumerus -23.8367 31.6894 -84.1861
rradius 112.608
rwrist -27.1396
rhand -26.1895 42.8398
rfingers 7.12502
rthumb 0.362748 12.8604
lclavicle 6.04305e-014 -9.54166e-015
lhumerus -6.32076 -48.5863 78.0834
lradius 103.858
lwrist 41.6576
lhand -33.8894 26.4964
lfingers 7.12502
lthumb -7.07283 56.3582
rfemur 12.4428 -23.7396 16.5001
rtibia 20.1474
rfoot -19.6791 -19.7849
rtoes -47.193
lfemur -64.9276 42.8081 -18.9715
ltibia 69.7955
lfoot -22.0514 21.81
ltoes 5.29622
134
root -10.932 14.1647 4.484 342.377 54.3897 -28.4651
lowerback 20.0073 -1.89499 2.08956
upperback 12.0022 -1.59348 -3.09818
thorax 1.66346 -0.358479 -4.18988
lowerneck -4.87785 14.61 -7.87349
upperneck -17.1617 19.6903 -4.78471
head -4.76223 10.6373 -0.878814
rclavicle -3.18055e-015 1.59028e-014
rhumerus -23.932 31.5021 -84.525
rradius 112.231
rwrist -27.8133
rhand -26.2316 41.8767
rfingers 7.12502
rthumb 0.322075 11.8972
lclavicle -3.18055e-015 1.59028e-014
lhumerus -6.94348 -47.9691 79.6689
lradius 103.691
lwrist 42.0591
lhand -32.7966 30.2245
lfingers 7.12502
lthumb -6.01781 60.1191
rfemur 11.5558 -24.4551 16.5442
rtibia 21.7957
rfoot -19.8055 -19.5517
rtoes -48.4519
lfemur -65.6137 42.9862 -18.8185
ltibia 70.3615
lfoot -22.1379 21.5525
ltoes 5.3556
135
root -10.9521 14.1453 4.47808 342.594 54.5221 -27.9114
lowerback 20.4982 -1.7993 1.67915
upperback 12.1639 -1.50758 -3.05666
thorax 1.6127 -0.32881 -3.92452
lowerneck -5.22618 14.6482 -7.72772
upperneck -17.143 19.7717 -4.90771
head -4.67558 10.6817 -0.901964
rclavicle 6.67916e-014 -7.63333e-014
rhumerus -24.3741 30.7923 -85.1077
rradius 111.998
rwrist -28.4929
rhand -26.1724 41.1524
rfingers 7.12502
rthumb 0.37927 11.1729
lclavicle 6.67916e-014 -7.63333e-014
lhumerus -7.83079 -47.8071 81.1057
lradius 103.7
lwrist 42.5398
lhand -32.7229 32.5605
lfingers 7.12502
lthumb -5.9467 62.457
rfemur 11.0712 -25.1702 15.6283
rtibia 23.3683
rfoot -20.0167 -18.8229
rtoes -49.3537
lfemur -65.5467 43.1059 -19.1362
ltibia 70.6047
lfoot -22.2894 21.237
ltoes 5.92151
